<svg xmlns="http://www.w3.org/2000/svg" height="24" viewBox="0 -960 960 960" width="24"><path d="M440-440.5ZM136.263-148.078q-28.353 0-48.269-19.916-19.916-19.916-19.916-48.3v-447.912q0-28.384 19.916-48.3 19.916-19.916 48.353-19.916h122.154l72.384-79.5h222.23v55.96H355.923l-72.269 79.5H136.347q-5.385 0-8.847 3.558-3.462 3.558-3.462 8.751v447.806q0 5.385 3.462 8.847 3.462 3.462 8.847 3.462h607.306q5.385 0 8.847-3.462 3.462-3.462 3.462-8.847v-336.768h55.96v336.768q0 28.437-19.916 48.353t-48.269 19.916H136.263Zm619.699-528.691v-79.193h-79.193v-55.96h79.193v-79.192h55.96v79.192h79.192v55.96h-79.192v79.193h-55.96ZM440-279.424q67.538 0 114.307-46.665 46.769-46.665 46.769-114.411 0-67.346-46.769-114.115Q507.538-601.384 440-601.384q-67.538 0-114.211 46.769T279.116-440.5q0 67.746 46.673 114.411Q372.462-279.424 440-279.424Zm-.147-55.96q-44.547 0-74.662-30.25-30.114-30.25-30.114-74.662 0-44.411 30.126-74.769 30.126-30.358 74.689-30.358 44.563 0 74.893 30.358 30.331 30.358 30.331 74.769 0 44.412-30.358 74.662-30.359 30.25-74.905 30.25Z"/></svg>